# xmcd CD database file
#
# Track frame offsets:
#	151
#	20431
#	29502
#	47875
#	59163
#	70192
#	84534
#	96994
#	117435
#	125548
#	139801
#	155530
#	168121
#	180851
#	195725
#	211799
#
# Disc length: 2918 seconds
#
# Revision: 1
# Processed by: cddbd v1.5.2PL0 Copyright (c) Steve Scherf et al.
# Submitted via: CDex 1.51
#
DISCID=e10b6410
DTITLE=Ronnie McCoury - Little Mo' McCoury
DYEAR=2007
DGENRE=Bluegrass
TTITLE0=Man Gave Names To All The Animals
TTITLE1=You've Got A Friend In Me
TTITLE2=This Land Is Your Land
TTITLE3=Monkey And The Enginee
TTITLE4=Barefoot Nellie
TTITLE5=My Friend, My Guitar
TTITLE6=The Big Rock Candy Mountain
TTITLE7=I've Been Working On The Railroad
TTITLE8=Mama's Blues
TTITLE9=Goin' Ape
TTITLE10=Teddy Bear's Picnic
TTITLE11=This Old Man
TTITLE12=Jimmy Brown The Newsboy
TTITLE13=The Fox
TTITLE14=He's Got The Whole World In His Hands
TTITLE15=Twinkle Twinkle Little Star
EXTD=YEAR: 2007
EXTT0=
EXTT1=
EXTT2=
EXTT3=
EXTT4=
EXTT5=
EXTT6=
EXTT7=
EXTT8=
EXTT9=
EXTT10=
EXTT11=
EXTT12=
EXTT13=
EXTT14=
EXTT15=
PLAYORDER=
